<svg width="40" height="40" viewBox="0 0 40 40" fill="none" xmlns="http://www.w3.org/2000/svg">
<rect width="40" height="40" fill="#18222D"/>
<path d="M17.9893 30H11V10H18.1303C20.1781 10 21.9372 10.4004 23.4076 11.2012C24.8847 11.9954 26.0194 13.138 26.8116 14.6289C27.6039 16.1198 28 17.9036 28 19.9805C28 22.0638 27.6005 23.8542 26.8015 25.3516C26.0093 26.849 24.8645 27.998 23.3673 28.7988C21.8768 29.5996 20.0841 30 17.9893 30ZM14.7364 26.8652H17.8081C19.2449 26.8652 20.4433 26.6113 21.4034 26.1035C22.3635 25.5892 23.0853 24.8242 23.5687 23.8086C24.0521 22.7865 24.2938 21.5104 24.2938 19.9805C24.2938 18.4505 24.0521 17.181 23.5687 16.1719C23.0853 15.1563 22.3703 14.3978 21.4236 13.8965C20.4836 13.3887 19.3154 13.1348 17.9188 13.1348H14.7364V26.8652Z" fill="white"/>
</svg>
